# xmcd
#
# Track frame offsets:
#	150
#	10767
#	17785
#	27907
#	37090
#	47655
#	60300
#	71715
#	83790
#	94082
#	102652
#	114292
#	127470
#	137727
#
# Disc length: 1967 seconds
#
# Revision: 2
# Processed by: cddbd v1.5.2PL0 Copyright (c) Steve Scherf et al.
# Submitted via: audiograbber 1.83.01
#
DISCID=bf07ad0e
DTITLE=Sir Douglas Quintet - The Sir Douglas Quintet Is Back - 1964-1966
DYEAR=2000
DGENRE=Oldies
TTITLE0=Sugar Bee
TTITLE1=Love Don't Treat Me Fair
TTITLE2=You Got Me Hurtin'
TTITLE3=We'll Never Tell
TTITLE4=Oh, What A Mistake!
TTITLE5=She Digs My Love
TTITLE6=When I Sing The Blues
TTITLE7=The Story Of John Hardy
TTITLE8=In Time
TTITLE9=Old Bill Baetty
TTITLE10=Isabella
TTITLE11=Blues Pass Me By
TTITLE12=Wine, Wine, Wine
TTITLE13=She's Gotta Be Boss
EXTD=
EXTT0=
EXTT1=
EXTT2=
EXTT3=
EXTT4=
EXTT5=
EXTT6=
EXTT7=
EXTT8=
EXTT9=
EXTT10=
EXTT11=
EXTT12=
EXTT13=
PLAYORDER=
